# xmcd CD database file
#
# Track frame offsets:
#	150
#	15377
#	34875
#	52875
#	75300
#	93077
#	101852
#	125477
#	140700
#	159225
#	167850
#	193425
#	205952
#	221852
#	242550
#
# Disc length: 3385 seconds
#
# Revision: 0
# Processed by: cddbd v1.5.1PL0 Copyright (c) Steve Scherf et al.
# Submitted via: CDex 1.51
#
DISCID=ce0d370f
DTITLE=Matthew Davidson - Sugar's Nightmare:Piano Rags to Jazz1898-1995
DYEAR=1996
DGENRE=Jazz
TTITLE0=Fingerbuster
TTITLE1=Ethiopia
TTITLE2=London Blues
TTITLE3=Echoes from the Snowball Club
TTITLE4=Sugar's Nightmare
TTITLE5=Spring Feelin
TTITLE6=ST. Charles in the Rain
TTITLE7=Satisfied Blues
TTITLE8=Ruby My Dear
TTITLE9=Little Rock Getaway
TTITLE10=Strange Meadow Lark
TTITLE11=Charleston Rag
TTITLE12=Blues in Thirds
TTITLE13=As October leaves Third on Huntington and State
TTITLE14=Piano Puzzle
EXTD=YEAR: 1996
EXTT0=
EXTT1=
EXTT2=
EXTT3=
EXTT4=
EXTT5=
EXTT6=
EXTT7=
EXTT8=
EXTT9=
EXTT10=
EXTT11=
EXTT12=
EXTT13=
EXTT14=
PLAYORDER=
